<svg width="24" height="24" viewBox="0 0 24 24" fill="none" xmlns="http://www.w3.org/2000/svg">
<path fill-rule="evenodd" clip-rule="evenodd" d="M1 6.75972C1 6.75983 1 6.75993 1 6.76003V6.76427V6.76883V6.77338V6.77795V6.78252V6.78709V6.79166V6.79625V6.80083V6.80542V6.81002V6.81461V6.81922V6.82382V6.82843V6.83305V6.83767V6.84229V6.84691V6.85154V6.85618V6.86081V6.86545V6.8701V6.87475V6.8794V6.88405V6.88871V6.89337V6.89804V6.9027V6.90737V6.91205V6.91672V6.9214V6.92608V6.93077V6.93546V6.94015V6.94484V6.94954V6.95424V6.95894V6.96364V6.96835V6.97306V6.97777V6.98248V6.9872V6.99191V6.99663V7.00135V7.00608V7.0108V7.01553V7.02026V7.02499V7.02972V7.03446V7.03919V7.04393V7.04867V7.05341V7.05815V7.0629V7.06764V7.07239V7.07713V7.08188V7.08663V7.09138V7.09613V7.10088V7.10564V7.11039V7.11514V7.1199V7.12466V7.12941V7.13417V7.13893V7.14369V7.14844V7.1532V7.15796V7.16272V7.16748V7.17224V7.177V7.18176V7.18652V7.19128V7.19604V7.2008V7.20556V7.21031V7.21507V7.21983V7.22459V7.22934V7.2341V7.23886V7.24361V7.24837V7.25312V7.25787V7.26262V7.26738V7.27213V7.27687V7.28162V7.28637V7.29111V7.29586V7.3006V7.30534V7.31008V7.31482V7.31956V7.32429V7.32903V7.33376V7.33849V7.34322V7.34794V7.35267V7.35739V7.36211V7.36683V7.37155V7.37626V7.38098V7.38568V7.39039V7.3951V7.3998V7.4045V7.4092V7.41389V7.41859V7.42328V7.42796V7.43265V7.43733V7.44201V7.44668V7.45136V7.45603V7.46069V7.46536V7.47002V7.47467V7.47933V7.48398V7.48862V7.49327V7.4979V7.50254V7.50717V7.5118V7.51643V7.52105V7.52566V7.53028V7.53489V7.53949V7.54409V7.54869V7.55328V7.55787V7.56245V7.56703V7.57161V7.57618V7.58075V7.58531V7.58987V7.59442V7.59897V7.60351V7.60805V7.61258V7.61711V7.62163V7.62615V7.63066V7.63517V7.63968V7.64417V7.64867V7.65315V7.65763V7.66211V7.66658V7.67105V7.67551V7.67996V7.68441V7.68885V7.69329V7.69772V7.70214V7.70656V7.71097V7.71538V7.71978V7.72417V7.72856V7.73294V7.73732V7.74168V7.74605V7.7504V7.75475V7.75909V7.76343V7.76776V7.77208V7.77639V7.7807V7.785V7.7893V7.79359V7.79787V7.80214V7.8064V7.81066V7.81491V7.81916V7.82339V7.82762V7.83184V7.83606V7.84026V7.84446V7.84865V7.85283V7.85701V7.86118V7.86533V7.86949V7.87363V7.87776V7.88189V7.88601V7.89012V7.89422V7.89831V7.9024V7.90647V7.91054V7.9146V7.91865V7.92269V7.92672V7.93075V7.93476V7.93877V7.94277V7.94676V7.95073V7.9547V7.95866V7.96262V7.96656V7.97049V7.97441V7.97833V7.98223V7.98613V7.99001V7.99389V7.99775V8.00161V8.00546V8.00929V8.01312V8.01694V8.02074V8.02454V8.02832V8.0321V8.03587V8.03962V8.04337V8.0471V8.05082V8.05454V8.05824V8.06193V8.06561V8.06928V8.07294V8.07659V8.08023V8.08386V8.08748V8.09108V8.09467V8.09826V8.10183V8.10539V8.10894V8.11248V8.116V8.11952V8.12302V8.12651V8.12999V8.13346V8.13692V8.14036V8.14379V8.14721V8.15062V8.15402V8.1574V8.16078V8.16414V8.16749V8.17082V8.17415V8.17746V8.18076V8.18404V8.18732V8.19058V8.19383V8.19706V8.20028V8.20349V8.20669V8.20988V8.21305V8.21621V8.21935V8.22248V8.2256V8.22871V8.2318V8.23488V8.23794V8.241V8.24403V8.24706V8.25007V8.25307V8.25605V8.25902V8.26198V8.26492V8.26785V8.27076V8.27366V8.27655V8.27942V8.28228V8.28512V8.28795V8.29077V8.29357V8.29636V8.29913V8.30188V8.30463V8.30735V8.31007V8.31277V8.31545V8.31812V8.32077V8.32341V8.32603V8.32864V8.33123V8.33381V8.33637V8.33892V8.34145V8.34397V8.34647V8.34896V8.35143V8.35388V8.35632V8.35874V8.36115V8.36354V8.36591V8.36827V8.37062V8.37294V8.37525V8.37755V8.37983V8.38209V8.38434V8.38656V8.38878V8.39097V8.39315V8.39532V8.39746V8.39959V8.40171V8.4038V8.40588V8.40795V8.40999V8.41202V8.41403V8.41603V8.418V8.41996V8.42191V8.42383V8.42574V8.42763V8.4295V8.43136V8.4332V8.43502V8.43682V8.4386V8.44037V8.44212V8.44385V8.44556V8.44726V8.44893V8.45059V8.45223V8.45385V8.45546V8.45704V8.45861V8.46016V8.46169V8.4632V8.46469V8.46617V8.46762V8.46906V8.47048V8.47188V8.47326V8.47462V8.47596V8.47728V8.47859V8.47987V8.48113V8.48238V8.48361V8.48481V8.486V8.48717V8.48832V8.48945V8.49056V8.49164V8.49271V8.49376V8.49479V8.4958V8.49679V8.49776V8.49871V8.49964V8.50055V8.50144V8.50231V8.50316V8.50398V8.50479V8.50558V8.50634V8.50709V8.50781V8.50852V8.5092V8.50986V8.5105V8.51112V8.51172V8.5123V8.51286V8.51339V8.51391V8.5144V8.51487V8.51532V8.51575V8.51616V8.51655V8.51691V8.51725V8.51757V8.51787V8.51815V8.51841V8.51864V8.51885V8.51904V8.51921V8.51935V8.51948V8.51958V8.51966V8.51971V8.51975L1.63363 8.51975C1.63363 8.51975 1.63363 8.51975 1.63363 8.51976H1V16.08C1 18.2891 2.79087 20.08 5 20.08H19.0014C21.2105 20.08 23.0014 18.2891 23.0014 16.08V8.51976C23.0014 7.96747 22.5536 7.51976 22.0014 7.51976H20.2739V5C20.2739 4.44772 19.8262 4 19.2739 4H3.76003C2.23581 4 1.00017 5.23554 1 6.75972ZM3.71805 9.51976C3.73202 9.51996 3.74601 9.52007 3.76003 9.52007H19.2739C19.2824 9.52007 19.2908 9.51996 19.2992 9.51976H21.0014V16.08C21.0014 17.1845 20.1059 18.08 19.0014 18.08H5C3.89543 18.08 3 17.1845 3 16.08V9.51976H3.71805ZM18.2739 7.51976V6H3.76003C3.34038 6 3.00017 6.34011 3 6.75972C3 6.75983 3 6.75993 3 6.76003C3 7.17243 3.32844 7.5081 3.73801 7.51976H18.2739Z" fill="#1E1E1E"/>
<circle cx="18.0915" cy="13.623" r="1" fill="#1E1E1E"/>
</svg>
